<?xml version="1.0" encoding="UTF-8"?>
<svg width="366" height="546" viewBox="0 0 366 546" fill="none" xmlns="http://www.w3.org/2000/svg">
<g clip-path="url(#clip0_2567_420)">
<path d="M208.807 521.735C208.807 535.327 197.685 545.391 184.535 545.979C171.384 546.567 160.263 534.417 160.263 521.735C160.263 521.445 160.27 521.154 160.263 520.864C159.792 500.766 160.263 480.6 160.263 460.498V24.2644C160.263 10.673 171.384 0.608411 184.535 0.0203857C197.643 -0.565765 208.807 11.5828 208.807 24.2644C208.807 24.5544 208.8 24.8456 208.807 25.1355C209.278 45.2334 208.807 65.3993 208.807 85.5015V521.735ZM287.419 400.034V332.383C287.419 296.603 287.419 260.822 287.419 225.042V200.166C287.419 187.484 276.254 175.335 263.146 175.922C249.996 176.51 238.874 186.574 238.874 200.166V400.034C238.874 412.716 250.038 424.865 263.146 424.278C276.297 423.689 287.419 413.625 287.419 400.034ZM366 323.811V225.105C366 212.423 354.836 200.274 341.728 200.861C328.577 201.449 317.456 211.513 317.456 225.105V323.811C317.456 336.493 328.62 348.642 341.728 348.055C354.836 347.468 366 337.403 366 323.811ZM48.5449 400.034V273C48.5449 260.318 37.3807 248.169 24.2727 248.756C11.1648 249.343 0 259.408 0 273V400.034C0 412.716 11.1642 424.865 24.2721 424.278C37.4226 423.689 48.5449 413.625 48.5449 400.034ZM126.66 364.85V85.3603C126.66 72.6787 115.496 60.5295 102.388 61.1163C89.2376 61.7049 78.116 71.7689 78.116 85.3603V364.849C78.116 377.531 89.2801 389.68 102.388 389.093C115.539 388.505 126.66 378.441 126.66 364.85Z" fill="url(#paint0_linear_2567_420)"/>
</g>
<defs>
<linearGradient id="paint0_linear_2567_420" x1="46.3834" y1="76.2169" x2="285.66" y2="491.135" gradientUnits="userSpaceOnUse">
<stop stop-color="#589CF2"/>
<stop offset="0.244" stop-color="#5856F2"/>
<stop offset="0.275" stop-color="#504DDF"/>
<stop offset="0.332" stop-color="#4440C4"/>
<stop offset="0.397" stop-color="#3B35AD"/>
<stop offset="0.472" stop-color="#332D9C"/>
<stop offset="0.563" stop-color="#2E278F"/>
<stop offset="0.688" stop-color="#2B2388"/>
<stop offset="1" stop-color="#2B2387"/>
</linearGradient>
<clipPath id="clip0_2567_420">
<rect width="366" height="546" fill="white"/>
</clipPath>
</defs>
</svg>
